<svg viewBox="0 0 217 31" fill="none" xmlns="http://www.w3.org/2000/svg">
<g clip-path="url(#clip0_1202_81)">
<path d="M16.4325 18.926L23.4542 21.5841L29.3494 19.2424V11.6543L23.4605 9.31586L16.4768 11.8916L22.8814 14.2617V16.4736L16.4325 18.926Z" fill="currentColor"/>
<path d="M12.9612 5.14841L0 0V5.7971L5.86355 7.96468L12.9612 5.14841Z" fill="currentColor"/>
<path d="M5.87304 22.9384L0 25.1693V30.8968L12.9612 25.7515L5.87304 22.9384Z" fill="currentColor"/>
<path d="M0 19.2424V11.6543L29.3494 0V5.79393L7.43623 13.8757C6.81286 14.1035 6.392 14.7048 6.392 15.3724C6.392 16.0401 6.80653 16.6287 7.42041 16.8628L29.3494 25.1693V30.8968L0 19.2424Z" fill="currentColor"/>
</g>
<path d="M206.026 26.897L199.829 9.91962H204.219L208.253 21.8942H208.511L212.514 9.91962H217L210.771 26.897H206.026Z" fill="currentColor"/>
<path d="M191.73 27.3166C186.727 27.3166 183.176 23.5725 183.176 18.5051C183.176 13.1473 186.759 9.50002 191.73 9.50002C197.184 9.50002 200.154 13.5346 200.154 18.3115V19.6348H187.243C187.372 22.2169 189.147 23.9599 191.859 23.9599C193.924 23.9599 195.506 22.9916 196.087 21.6037H199.992C199.153 25.0573 196.119 27.3166 191.73 27.3166ZM187.308 16.6654H196.151C195.958 14.3738 194.183 12.8568 191.73 12.8568C189.373 12.8568 187.566 14.5351 187.308 16.6654Z" fill="currentColor"/>
<path d="M162.944 26.897V4.30352H170.561C177.759 4.30352 182.084 8.95133 182.084 15.5357C182.084 22.5397 177.759 26.897 170.561 26.897H162.944ZM167.237 23.153H170.4C174.37 23.153 177.63 20.829 177.63 15.5357C177.63 10.4683 174.402 8.04759 170.4 8.04759H167.237V23.153Z" fill="currentColor"/>
<path d="M134.736 26.897V9.91962H138.739V11.9853H138.965C139.707 10.6942 141.256 9.50002 143.58 9.50002C145.904 9.50002 147.647 10.5006 148.615 12.0821H148.873C150.035 10.3069 151.714 9.50002 153.909 9.50002C157.653 9.50002 160.106 12.0499 160.106 15.6325V26.897H155.91V17.085C155.91 14.7611 154.845 13.4377 152.843 13.4377C150.939 13.4377 149.551 14.8902 149.551 17.1818V26.897H145.355V16.8268C145.355 14.7611 144.129 13.4377 142.192 13.4377C140.32 13.4377 138.932 14.987 138.932 17.1495V26.897H134.736Z" fill="currentColor"/>
<path d="M123.614 27.3166C118.288 27.3166 114.577 23.4757 114.577 18.4083C114.577 13.3732 118.256 9.50002 123.614 9.50002C128.94 9.50002 132.651 13.3732 132.651 18.4083C132.651 23.4434 128.907 27.3166 123.614 27.3166ZM123.614 23.508C126.39 23.508 128.391 21.3777 128.391 18.4083C128.391 15.4712 126.39 13.3086 123.614 13.3086C120.806 13.3086 118.837 15.4712 118.837 18.4083C118.837 21.41 120.838 23.508 123.614 23.508Z" fill="currentColor"/>
<path d="M110.462 26.897C106.944 26.897 104.814 24.8959 104.814 21.2486V13.2764H101.941V9.95189H103.845C104.588 9.95189 105.072 9.46774 105.072 8.66083V5.23953H109.01V9.91961H113.69V13.2764H109.01V21.0873C109.01 22.5074 109.72 23.4112 111.334 23.4112H113.593V26.897H110.462Z" fill="currentColor"/>
<path d="M93.6694 27.3166C89.0862 27.3166 86.7946 25.1541 86.6332 21.7973H90.5063C90.6677 23.2498 91.8297 24.0244 93.734 24.0244C95.6706 24.0244 96.768 23.1852 96.768 21.991C96.768 18.376 87.0205 21.7973 87.0205 14.6965C87.0205 11.8239 89.5058 9.50002 93.7017 9.50002C97.3812 9.50002 100.125 11.3721 100.383 14.7611H96.6711C96.4775 13.5346 95.5092 12.7277 93.6694 12.7277C91.9588 12.7277 90.8614 13.47 90.8614 14.5674C90.8614 17.7951 100.835 14.406 100.835 21.7651C100.835 24.9927 98.2204 27.3166 93.6694 27.3166Z" fill="currentColor"/>
<path d="M75.7701 27.3166C71.9615 27.3166 69.6053 24.6377 69.6053 21.0227V9.91962H73.8012V19.9576C73.8012 22.0233 75.1568 23.4434 77.0934 23.4434C79.1268 23.4434 80.5793 21.7973 80.5793 19.6671V9.91962H84.7752V26.897H80.7729V24.8313H80.5147C79.8369 26.0901 78.1586 27.3166 75.7701 27.3166Z" fill="currentColor"/>
<path d="M56.4412 27.3166C49.5341 27.3166 44.6603 22.3138 44.6603 15.6003C44.6603 8.95133 49.5664 3.88393 56.4735 3.88393C62.2833 3.88393 66.3501 7.46661 67.512 12.3081H62.8642C62.0251 9.69368 59.572 7.98304 56.4735 7.98304C52.213 7.98304 49.1145 11.243 49.1145 15.6003C49.1145 20.0221 52.213 23.2175 56.4735 23.2175C59.5398 23.2175 62.0251 21.5391 62.9288 18.957H67.6411C66.5438 23.8308 62.251 27.3166 56.4412 27.3166Z" fill="currentColor"/>
<defs>
<clipPath id="clip0_1202_81">
<rect width="29.3494" height="30.8968" fill="currentColor"/>
</clipPath>
</defs>
</svg>
