<svg viewBox="0 0 1344 184" fill="none" xmlns="http://www.w3.org/2000/svg">
<path d="M1258.42 180.107L1210.09 47.709H1244.32L1275.79 141.093H1277.8L1309.01 47.709H1344L1295.42 180.107H1258.42Z" fill="#1F1F1F"/>
<path d="M1146.93 183.38C1107.91 183.38 1080.22 154.182 1080.22 114.664C1080.22 72.8805 1108.16 44.4375 1146.93 44.4375C1189.47 44.4375 1212.62 75.901 1212.62 113.154V123.474H1111.94C1112.95 143.61 1126.79 157.203 1147.93 157.203C1164.04 157.203 1176.38 149.651 1180.91 138.828H1211.36C1204.82 165.761 1181.16 183.38 1146.93 183.38ZM1112.44 100.317H1181.41C1179.9 82.4454 1166.06 70.6151 1146.93 70.6151C1128.55 70.6151 1114.46 83.704 1112.44 100.317Z" fill="#1F1F1F"/>
<path d="M922.443 180.106V3.91016H981.846C1037.98 3.91016 1071.71 40.1561 1071.71 91.5046C1071.71 146.125 1037.98 180.106 981.846 180.106H922.443ZM955.92 150.908H980.588C1011.55 150.908 1036.97 132.785 1036.97 91.5046C1036.97 51.9864 1011.8 33.1083 980.588 33.1083H955.92V150.908Z" fill="#1F1F1F"/>
<path d="M702.462 180.108V47.7097H733.674V63.819H735.436C741.225 53.7507 753.307 44.4375 771.43 44.4375C789.554 44.4375 803.146 52.2405 810.697 64.5742H812.711C821.772 50.7302 834.861 44.4375 851.978 44.4375C881.176 44.4375 900.306 64.3224 900.306 92.262V180.108H867.583V103.589C867.583 85.4659 859.277 75.1459 843.671 75.1459C828.82 75.1459 817.997 86.4728 817.997 104.344V180.108H785.274V101.575C785.274 85.4659 775.71 75.1459 760.607 75.1459C746.008 75.1459 735.184 87.2279 735.184 104.092V180.108H702.462Z" fill="#1F1F1F"/>
<path d="M615.724 183.38C574.192 183.38 545.245 153.427 545.245 113.909C545.245 74.6425 573.94 44.4375 615.724 44.4375C657.256 44.4375 686.202 74.6425 686.202 113.909C686.202 153.175 657.004 183.38 615.724 183.38ZM615.724 153.679C637.371 153.679 652.977 137.066 652.977 113.909C652.977 91.0035 637.371 74.139 615.724 74.139C593.825 74.139 578.471 91.0035 578.471 113.909C578.471 137.318 594.077 153.679 615.724 153.679Z" fill="#1F1F1F"/>
<path d="M513.158 180.106C485.721 180.106 469.109 164.5 469.109 136.057V73.8853H446.706V47.9593H461.557C467.347 47.9593 471.122 44.1837 471.122 37.891V11.21H501.831V47.7076H538.329V73.8853H501.831V134.799C501.831 145.874 507.368 152.922 519.954 152.922H537.573V180.106H513.158Z" fill="#1F1F1F"/>
<path d="M382.2 183.38C346.457 183.38 328.586 166.516 327.327 140.338H357.532C358.791 151.665 367.852 157.706 382.703 157.706C397.806 157.706 406.364 151.162 406.364 141.849C406.364 113.657 330.348 140.338 330.348 84.9625C330.348 62.5605 349.729 44.4375 382.452 44.4375C411.146 44.4375 432.542 59.0366 434.555 85.4659H405.609C404.099 75.901 396.547 69.6083 382.2 69.6083C368.859 69.6083 360.301 75.3976 360.301 83.9557C360.301 109.126 438.079 82.6971 438.079 140.087C438.079 165.257 417.691 183.38 382.2 183.38Z" fill="#1F1F1F"/>
<path d="M242.611 183.38C212.909 183.38 194.534 162.488 194.534 134.297V47.709H227.257V125.99C227.257 142.1 237.828 153.175 252.931 153.175C268.789 153.175 280.116 140.338 280.116 123.725V47.709H312.838V180.107H281.626V163.998H279.612C274.326 173.815 261.237 183.38 242.611 183.38Z" fill="#1F1F1F"/>
<path d="M91.8738 183.38C38.008 183.38 -0.00012207 144.365 -0.00012207 92.0097C-0.00012207 40.1578 38.2597 0.639648 92.1255 0.639648C137.433 0.639648 169.149 28.5792 178.21 66.3355H141.964C135.419 45.9471 116.29 32.6066 92.1255 32.6066C58.8999 32.6066 34.7358 58.0291 34.7358 92.0097C34.7358 126.494 58.8999 151.413 92.1255 151.413C116.038 151.413 135.419 138.324 142.467 118.187H179.217C170.659 156.195 137.181 183.38 91.8738 183.38Z" fill="#1F1F1F"/>
</svg>
