<svg width="24" height="24" viewBox="0 0 24 24" fill="none" xmlns="http://www.w3.org/2000/svg">
<path d="M19.25 7.50488C20.765 7.50488 21.9999 8.73994 22 10.2549V20.5498C22 21.0547 21.6953 21.51 21.2305 21.7051C21.0755 21.7701 20.91 21.7998 20.75 21.7998V21.7949C20.425 21.7949 20.1052 21.6697 19.8652 21.4297L17.9404 19.5049H11.75C10.235 19.5049 9 18.2699 9 16.7549V16.5H10.5V16.7549C10.5 17.4449 11.06 18.0049 11.75 18.0049H18.5596L20.5 19.9453V10.2549C20.4999 9.56494 19.94 9.00488 19.25 9.00488H19V7.50488H19.25ZM14.75 3C16.265 3 17.5 4.235 17.5 5.75V12.25C17.5 13.765 16.265 15 14.75 15H6.55957L4.13477 17.4248C3.89477 17.6648 3.57487 17.79 3.25488 17.79L3.25 17.7949C3.09 17.7949 2.92453 17.7652 2.76953 17.7002C2.29972 17.5051 2 17.0548 2 16.5449V5.75C2 4.235 3.235 3 4.75 3H14.75ZM4.75 4.5C4.06 4.5 3.5 5.06 3.5 5.75V15.9404L5.94043 13.5H14.75C15.44 13.5 16 12.94 16 12.25V5.75C16 5.06 15.44 4.5 14.75 4.5H4.75Z" fill="white"/>
</svg>
