<svg width="20" height="17" viewBox="0 0 20 17" fill="none" xmlns="http://www.w3.org/2000/svg">
<path d="M17.25 0.139648C18.765 0.139648 20 1.37465 20 2.88965V13.3896C20 14.9046 18.765 16.1396 17.25 16.1396H4.5V14.6396H17.25C17.94 14.6396 18.5 14.0796 18.5 13.3896V5.59961L10 10.5098L0 4.73438V2.88965C0 1.37465 1.235 0.139648 2.75 0.139648H17.25ZM7 12.6396H1.5V11.1396H7V12.6396ZM2.5 8.13965V9.63965H0V8.13965H2.5ZM2.75 1.63965C2.06 1.63965 1.5 2.19965 1.5 2.88965V3.86426L10 8.76953L18.5 3.86426V2.88965C18.5 2.19965 17.94 1.63965 17.25 1.63965H2.75Z" fill="#1F1F1F"/>
</svg>
