<svg width="24" height="25" viewBox="0 0 24 25" fill="none" xmlns="http://www.w3.org/2000/svg">
<path d="M19.2748 22.0246C19.1698 22.0246 19.0648 22.0196 18.9598 22.0046C10.1048 20.9546 3.18476 14.0346 2.13476 5.17965C2.04476 4.41965 2.28476 3.64965 2.79976 3.06965C3.32476 2.47965 4.07976 2.13965 4.86976 2.13965H8.86476C9.42976 2.13965 9.92476 2.51965 10.0748 3.06465L11.0648 6.75465C11.1798 7.18465 11.0548 7.64965 10.7398 7.96465L8.82976 9.87465C10.1048 12.1346 12.0098 14.0396 14.2698 15.3146L16.1798 13.4046C16.4948 13.0896 16.9548 12.9646 17.3898 13.0796L21.0798 14.0696C21.6248 14.2146 22.0048 14.7146 22.0048 15.2796V19.2746C22.0048 20.0646 21.6648 20.8196 21.0748 21.3446C20.5748 21.7896 19.9348 22.0296 19.2798 22.0296L19.2748 22.0246ZM4.86976 3.63965C4.50976 3.63965 4.16476 3.79465 3.92476 4.06465C3.68976 4.32965 3.58476 4.65965 3.62476 5.00465C4.59476 13.1696 10.9698 19.5496 19.1348 20.5146C19.4748 20.5546 19.8098 20.4496 20.0748 20.2146C20.3448 19.9746 20.4998 19.6296 20.4998 19.2696V15.4646L17.1348 14.5646L14.5448 17.1546L14.0598 16.9046C11.1548 15.4096 8.72976 12.9896 7.23476 10.0796L6.98476 9.59465L9.57476 7.00465L8.67476 3.63965H4.86976Z" fill="#1F1F1F"/>
</svg>
